<?xml version="1.0" encoding="UTF-8" standalone="no"?>
<!DOCTYPE svg PUBLIC "-//W3C//DTD SVG 1.1//EN"
 "http://www.w3.org/Graphics/SVG/1.1/DTD/svg11.dtd">
<!-- Generated by graphviz version 2.44.1 (20200629.0846)
 -->
<!-- Title: g Pages: 1 -->
<svg width="564pt" height="338pt"
 viewBox="0.00 0.00 564.00 337.60" xmlns="http://www.w3.org/2000/svg" xmlns:xlink="http://www.w3.org/1999/xlink">
<g id="graph0" class="graph" transform="scale(1 1) rotate(0) translate(4 333.6)">
<title>g</title>
<polygon fill="white" stroke="transparent" points="-4,4 -4,-333.6 560,-333.6 560,4 -4,4"/>
<g id="clust1" class="cluster">
<title>cluster_15833472</title>
<polygon fill="#ececec" stroke="black" points="8,-8 8,-321.6 548,-321.6 548,-8 8,-8"/>
<text text-anchor="middle" x="38.16" y="-305" font-family="Times New Roman,serif" font-size="14.00">blueocn</text>
</g>
<!-- City15833472 -->
<g id="node1" class="node">
<title>City15833472</title>
<polygon fill="#ffffff" stroke="transparent" points="539.5,-288.8 166.5,-288.8 166.5,-166.8 539.5,-166.8 539.5,-288.8"/>
<text text-anchor="start" x="172" y="-271.2" font-family="Times New Roman,serif" font-size="14.00">(C)City</text>
<text text-anchor="start" x="172" y="-247.2" font-family="Times New Roman,serif" font-size="14.00">&#45; &#160;&#160;propertyChangeSupport: PropertyChangeSupport [0..1]</text>
<text text-anchor="start" x="172" y="-223.2" font-family="Times New Roman,serif" font-size="14.00">&#45; &#160;&#160;trafficUpdate: String [0..1]</text>
<text text-anchor="start" x="171.89" y="-199.2" font-family="Times New Roman,serif" font-size="14.00">+ addPropertyChangeListener(listener: PropertyChangeListener)</text>
<text text-anchor="start" x="172" y="-175.2" font-family="Times New Roman,serif" font-size="14.00">+ updateTraffic(trafficUpdate: String)</text>
<polygon fill="black" stroke="black" points="167,-263.8 167,-263.8 540,-263.8 540,-263.8 167,-263.8"/>
<polygon fill="black" stroke="black" points="167,-215.8 167,-215.8 540,-215.8 540,-215.8 167,-215.8"/>
<polygon fill="none" stroke="black" points="166.5,-166.8 166.5,-288.8 539.5,-288.8 539.5,-166.8 166.5,-166.8"/>
</g>
<!-- Main15833472 -->
<g id="node2" class="node">
<title>Main15833472</title>
<polygon fill="#ffffff" stroke="transparent" points="148,-252.8 16,-252.8 16,-202.8 148,-202.8 148,-252.8"/>
<text text-anchor="start" x="21" y="-235.2" font-family="Times New Roman,serif" font-size="14.00">(C)Main</text>
<text text-anchor="start" x="20.52" y="-211.2" font-family="Times New Roman,serif" font-size="14.00">+ main(args: String[])</text>
<polygon fill="black" stroke="black" points="16,-227.8 16,-227.8 148,-227.8 148,-227.8 16,-227.8"/>
<polygon fill="none" stroke="black" points="16,-202.8 16,-252.8 148,-252.8 148,-202.8 16,-202.8"/>
</g>
<!-- TrafficUpdates15833472 -->
<g id="node3" class="node">
<title>TrafficUpdates15833472</title>
<polygon fill="#ffffff" stroke="transparent" points="298,-114 16,-114 16,-16 298,-16 298,-114"/>
<text text-anchor="start" x="21" y="-96.4" font-family="Times New Roman,serif" font-size="14.00">(C)TrafficUpdates</text>
<text text-anchor="start" x="21" y="-72.4" font-family="Times New Roman,serif" font-size="14.00">&#45; &#160;&#160;updates: ArrayList&lt;String&gt; [0..*]</text>
<text text-anchor="start" x="21" y="-48.4" font-family="Times New Roman,serif" font-size="14.00">+ getUpdates()</text>
<text text-anchor="start" x="20.87" y="-24.4" font-family="Times New Roman,serif" font-size="14.00">+ propertyChange(event: PropertyChangeEvent)</text>
<polygon fill="black" stroke="black" points="16,-89 16,-89 298,-89 298,-89 16,-89"/>
<polygon fill="black" stroke="black" points="16,-65 16,-65 298,-65 298,-65 16,-65"/>
<polygon fill="none" stroke="black" points="16,-16 16,-114 298,-114 298,-16 16,-16"/>
</g>
<!-- Main15833472&#45;&gt;TrafficUpdates15833472 -->
<g id="edge1" class="edge">
<title>Main15833472&#45;&gt;TrafficUpdates15833472</title>
<path fill="none" stroke="black" d="M93.23,-202.73C102.99,-181.79 117.54,-150.61 130.27,-123.31"/>
<polygon fill="black" stroke="black" points="133.45,-124.76 134.51,-114.22 127.11,-121.8 133.45,-124.76"/>
<text text-anchor="middle" x="187.58" y="-136.2" font-family="Times New Roman,serif" font-size="14.00">main() &#45;&gt; getUpdates()</text>
</g>
</g>
</svg>
